# xmcd
#
# Track frame offsets: 
#        150
#        27755
#        57745
#        86849
#        121168
#        153522
#        209752
#        232432
#        270813
#
# Disc length: 4490 seconds
#
# Revision: 3
# Processed by: cddbd v1.5.2PL0 Copyright (c) Steve Scherf et al.
# Submitted via: ExactAudioCopy v0.99pb4
#
DISCID=80118809
DTITLE=Chick Corea - Five Trios [CD5] - Brooklyn, Paris To Clearwat
DTITLE=er
DYEAR=2007
DGENRE=Jazz
TTITLE0=Final Frontier
TTITLE1=Aftertouch
TTITLE2=Island Tune
TTITLE3=Dr. Jackle
TTITLE4=Creedmore's Unexpected Visitor
TTITLE5=Dedication
TTITLE6=Marimba Drum Song
TTITLE7=Con Agua
TTITLE8=3:30 A.M. Raga
EXTD=YEAR: 2007
EXTT0=
EXTT1=
EXTT2=
EXTT3=
EXTT4=
EXTT5=
EXTT6=
EXTT7=
EXTT8=
PLAYORDER=
